# Blender v2.79 (sub 0) OBJ File: 'glowing-cubes.blend'
# www.blender.org
mtllib cube-small.mtl
o Cube-Small
v -27.557262 5.712895 20.200001
v -27.724998 5.603968 20.000000
v -27.833927 5.771702 19.799999
v -27.775120 6.048364 16.787540
v -27.789583 6.070636 19.799999
v -27.607386 6.157292 20.000000
v -24.971996 7.630260 20.200001
v -27.498459 5.989558 20.226557
v -31.560612 3.113092 20.000000
v -29.942179 0.572168 20.000000
v -29.892811 0.128928 20.200001
v -31.819542 3.095833 20.209393
v -31.968473 3.325169 19.917156
v -31.691811 3.266363 16.787540
v -31.669540 3.280827 19.799999
v -25.916561 3.186435 -20.200001
v -27.557262 5.712895 -20.226557
v -27.498459 5.989558 -20.200001
v -25.080925 7.797995 -20.000000
v -27.621849 6.179564 -20.000000
v -27.775120 6.048364 -19.799999
v -27.833927 5.771702 -16.787540
v -27.856197 5.757238 -19.799999
v -27.747269 5.589504 -20.000000
v -26.084295 3.077507 -20.000000
v -31.582882 3.098629 -20.000000
v -31.691811 3.266363 -19.799999
v -31.968473 3.325169 -16.388920
v -31.973589 3.333046 -19.926548
v -31.814426 3.087955 -20.200001
v -27.557262 5.712895 24.773443
v -27.498459 5.989558 24.799999
v -24.746613 8.015100 25.000000
v -27.718634 6.096246 25.000000
v -27.788807 5.702223 25.000000
v -25.916561 3.186435 24.799999
v 6.096246 27.718634 25.000000
v 5.702223 27.788807 25.000000
v 3.186435 25.916561 24.799999
v 5.712895 27.557262 24.773443
v 5.989558 27.498459 24.799999
v 8.015100 24.746613 25.000000
v 5.771702 27.833927 16.787540
v 6.048364 27.775120 16.787540
v 6.070636 27.789583 19.799999
v 6.179564 27.621849 20.000000
v 7.797995 25.080925 20.000000
v 7.630260 24.971996 20.200001
v 5.989558 27.498459 20.226557
v 5.712895 27.557262 20.200001
v 3.077507 26.084295 20.000000
v 5.589504 27.747269 20.000000
v 5.757238 27.856197 19.799999
v -30.557121 9.965055 16.388920
v -30.564999 9.959940 19.926548
v -30.319908 10.119103 20.200001
v -27.586264 11.655878 20.000000
v -30.098261 9.992906 20.000000
v -30.280458 9.906247 19.799999
v -30.557121 9.965055 -19.917156
v -30.280458 9.906247 -16.787540
v -30.265995 9.883977 -19.799999
v -30.112724 10.015176 -20.000000
v -27.360882 12.040719 -20.200001
v -30.327785 10.113988 -20.209393
v -5.712895 -27.557262 -20.200001
v -5.989558 -27.498459 -20.200001
v -6.157292 -27.607386 -20.000000
v -6.048364 -27.775120 -19.799999
v -5.771702 -27.833927 -19.799999
v -5.603968 -27.724998 -20.000000
v -9.992906 -30.098261 -20.000000
v -11.655878 -27.586264 -20.000000
v -12.040719 -27.360882 -20.200001
v -10.113988 -30.327785 -20.209393
v -9.965055 -30.557121 -19.917156
v -9.906247 -30.280458 -16.787540
v -9.883977 -30.265995 -19.799999
v 5.712895 27.557262 -24.799999
v 2.743196 25.867191 -25.000000
v 5.704985 27.801800 -25.000000
v 6.093484 27.705641 -25.000000
v 5.989558 27.498459 -24.799999
v 3.186435 25.916561 -20.200001
v 5.712895 27.557262 -20.226557
v 5.989558 27.498459 -20.226557
v 7.630260 24.971996 -20.200001
v 6.157292 27.607386 -20.000000
v 6.048364 27.775120 -19.799999
v 5.771702 27.833927 -19.799999
v 5.603968 27.724998 -20.000000
v -24.971996 7.630260 -24.799999
v -27.498459 5.989558 -24.773443
v -27.557262 5.712895 -24.799999
v -25.867191 2.743196 -25.000000
v -27.801800 5.704985 -25.000000
v -27.705641 6.093484 -25.000000
v 9.959940 30.564999 19.926548
v 10.119103 30.319908 20.200001
v 10.015176 30.112724 20.000000
v 9.906247 30.280458 19.799999
v 9.965055 30.557121 16.388920
v 31.819542 -3.095833 20.209393
v 31.968473 -3.325169 19.917156
v 31.691811 -3.266363 19.799999
v 31.560612 -3.113092 20.000000
v 29.942179 -0.572168 20.000000
v 29.892811 -0.128928 20.200001
v 27.607386 -6.157292 20.000000
v 27.498459 -5.989558 20.200001
v 27.557262 -5.712895 20.200001
v 27.724998 -5.603968 20.000000
v 27.856197 -5.757238 19.799999
v 27.833927 -5.771702 16.787540
v 27.775120 -6.048364 16.787540
v 27.789583 -6.070636 19.799999
v 27.621849 -6.179564 -20.000000
v 27.775120 -6.048364 -19.799999
v 27.833927 -5.771702 -19.799999
v 27.747269 -5.589504 -20.000000
v 26.084295 -3.077507 -20.000000
v 27.557262 -5.712895 -20.200001
v 27.498459 -5.989558 -20.226557
v 24.971996 -7.630260 -20.200001
v 25.080925 -7.797995 -20.000000
v 10.113988 30.327785 -20.209393
v 9.965055 30.557121 -19.917156
v 9.906247 30.280458 -16.787540
v 9.883977 30.265995 -19.799999
v 9.992906 30.098261 -20.000000
v 11.655878 27.586264 -20.000000
v 12.040719 27.360882 -20.200001
v 31.814426 -3.087955 -20.200001
v 31.582882 -3.098629 -20.000000
v 31.669540 -3.280827 -19.799999
v 31.691811 -3.266363 -16.787540
v 31.968473 -3.325169 -16.388920
v 31.973589 -3.333046 -19.926548
v 27.705641 -6.093484 -25.000000
v 27.498459 -5.989558 -24.799999
v 27.557262 -5.712895 -24.773443
v 25.916561 -3.186435 -24.799999
v 25.867191 -2.743196 -25.000000
v 27.801800 -5.704985 -25.000000
v 24.746613 -8.015100 25.000000
v 27.718634 -6.096246 25.000000
v 27.788807 -5.702223 25.000000
v 25.916561 -3.186435 24.799999
v 27.557262 -5.712895 24.773443
v 27.498459 -5.989558 24.773443
v 24.971996 -7.630260 24.799999
v -5.771702 -27.833927 16.787540
v -6.048364 -27.775120 16.787540
v -6.070636 -27.789583 19.799999
v -6.179564 -27.621849 20.000000
v -7.797995 -25.080925 20.000000
v -7.630260 -24.971996 20.200001
v -5.989558 -27.498459 20.226557
v -5.712895 -27.557262 20.226557
v -3.186435 -25.916561 20.200001
v -3.077507 -26.084295 20.000000
v -5.589504 -27.747269 20.000000
v -5.757238 -27.856197 19.799999
v -5.702223 -27.788807 25.000000
v -5.712895 -27.557262 24.799999
v -5.989558 -27.498459 24.799999
v -8.015100 -24.746613 25.000000
v -6.096246 -27.718634 25.000000
v -10.119103 -30.319908 20.200001
v -10.015176 -30.112724 20.000000
v -9.906247 -30.280458 19.799999
v -9.965055 -30.557121 16.388920
v -9.959940 -30.564999 19.926548
v 0.128928 29.892811 20.200001
v 3.095833 31.819542 20.209393
v 3.325169 31.968473 19.917156
v 3.266363 31.691811 19.799999
v 3.098629 31.582882 20.000000
v 6.894060 34.286140 -24.738260
v 7.183052 34.473812 -24.517155
v 7.459717 34.415005 -21.388920
v 7.493341 34.363228 -24.455416
v 7.613765 34.177792 -24.799999
v 9.149787 31.445305 -25.000000
v 7.427876 33.983459 -25.000000
v 7.054768 34.152027 -25.000000
v 4.322281 32.616005 -24.799999
v 7.459717 34.415005 24.517155
v 7.183052 34.473812 21.388920
v 7.131273 34.440186 24.455416
v 6.945839 34.319763 24.799999
v 4.431210 32.448269 25.000000
v 7.036613 34.066624 25.000000
v 7.446029 34.068863 25.000000
v 9.317523 31.554234 24.799999
v 7.647390 34.126015 24.738260
v 34.126015 -7.647390 24.738260
v 34.415005 -7.459717 24.517155
v 34.473812 -7.183052 21.388920
v 34.440186 -7.131273 24.455416
v 34.319763 -6.945839 24.799999
v 32.448269 -4.431210 25.000000
v 34.066624 -7.036613 25.000000
v 34.068863 -7.446029 25.000000
v 31.554234 -9.317523 24.799999
v 34.286140 -6.894060 -24.738260
v 34.473812 -7.183052 -24.517155
v 34.415005 -7.459717 -21.388920
v 34.363228 -7.493341 -24.455416
v 34.177792 -7.613765 -24.799999
v 31.445305 -9.149787 -25.000000
v 33.983459 -7.427876 -25.000000
v 34.152027 -7.054768 -25.000000
v 32.616005 -4.322281 -24.799999
v -34.415005 7.459717 -21.388920
v -34.363228 7.493341 -24.455416
v -34.177792 7.613765 -24.799999
v -31.445305 9.149787 -25.000000
v -33.983459 7.427876 -25.000000
v -34.152027 7.054768 -25.000000
v -32.616005 4.322281 -24.799999
v -34.286140 6.894060 -24.738260
v -34.473812 7.183052 -24.517155
v -9.149787 -31.445305 -25.000000
v -7.427876 -33.983459 -25.000000
v -7.054768 -34.152027 -25.000000
v -4.322281 -32.616005 -24.799999
v -6.894060 -34.286140 -24.738260
v -7.183052 -34.473812 -24.517155
v -7.459717 -34.415005 -21.388920
v -7.493341 -34.363228 -24.455416
v -7.613765 -34.177792 -24.799999
v -4.431210 -32.448269 25.000000
v -7.036613 -34.066624 25.000000
v -7.446029 -34.068863 25.000000
v -9.317523 -31.554234 24.799999
v -7.647390 -34.126015 24.738260
v -7.459717 -34.415005 24.517155
v -7.183052 -34.473812 21.388920
v -7.131273 -34.440186 24.455416
v -6.945839 -34.319763 24.799999
v -34.319763 6.945839 24.799999
v -32.448269 4.431210 25.000000
v -34.066624 7.036613 25.000000
v -34.068863 7.446029 25.000000
v -31.554234 9.317523 24.799999
v -34.126015 7.647390 24.738260
v -34.415005 7.459717 24.517155
v -34.473812 7.183052 21.388920
v -34.440186 7.131273 24.455416
v -3.186435 -25.916561 -24.799999
v -2.743196 -25.867191 -25.000000
v -5.704985 -27.801800 -25.000000
v -6.093484 -27.705641 -25.000000
v -7.630260 -24.971996 -24.799999
v -5.989558 -27.498459 -24.773443
v -5.712895 -27.557262 -24.773443
v 30.265995 -9.883977 -19.799999
v 30.112724 -10.015176 -20.000000
v 27.360882 -12.040719 -20.200001
v 30.327785 -10.113988 -20.209393
v 30.557121 -9.965055 -19.917156
v 30.280458 -9.906247 -16.787540
v 27.586264 -11.655878 20.000000
v 30.098261 -9.992906 20.000000
v 30.280458 -9.906247 19.799999
v 30.557121 -9.965055 16.388920
v 30.564999 -9.959940 19.926548
v 30.319908 -10.119103 20.200001
v -3.095833 -31.819542 20.209393
v -3.325169 -31.968473 19.917156
v -3.266363 -31.691811 19.799999
v -3.098629 -31.582882 20.000000
v -0.128928 -29.892811 20.200001
v -3.266363 -31.691811 -16.787540
v -3.325169 -31.968473 -16.388920
v -3.333046 -31.973589 -19.926548
v -3.087955 -31.814426 -20.200001
v -0.572168 -29.942179 -20.000000
v -3.113092 -31.560612 -20.000000
v -3.280827 -31.669540 -19.799999
v 3.266363 31.691811 -16.787540
v 3.325169 31.968473 -16.388920
v 3.333046 31.973589 -19.926548
v 3.087955 31.814426 -20.200001
v 0.572168 29.942179 -20.000000
v 3.113092 31.560612 -20.000000
v 3.280827 31.669540 -19.799999
vn 0.8387 0.5446 0.0000
vn -0.8387 -0.5446 0.0000
vn 0.5446 -0.8387 0.0000
vn 0.0000 0.0000 -1.0000
vn -0.0000 0.0000 1.0000
vn -0.5446 0.8387 0.0000
vn 0.8151 -0.3910 -0.4276
vn -0.4941 -0.6699 -0.5542
vn 0.7634 -0.0371 0.6448
vn -0.2613 -0.9619 0.0800
vn 0.5853 -0.1333 0.7997
vn -0.1333 -0.5853 0.7998
vn -0.2871 -0.7966 -0.5321
vn -0.0744 0.9053 -0.4183
vn -0.0848 0.8985 0.4306
vn 0.1698 0.7987 0.5773
vn -0.8129 -0.1789 0.5542
vn 0.2948 -0.6008 -0.7431
vn -0.1402 -0.6596 0.7384
vn 0.5890 -0.1163 -0.7998
vn 0.9851 -0.1525 -0.0800
vn 0.5680 0.4263 -0.7040
vn -0.9717 0.2065 -0.1150
vn -0.5485 0.2909 0.7839
vn 0.8129 0.1789 0.5542
vn 0.2108 0.9763 0.0481
vn -0.6166 -0.3431 -0.7086
vn -0.5473 0.3054 0.7792
vn 0.1698 0.7987 -0.5773
vn 0.5137 0.4289 0.7431
vn -0.9851 0.1525 -0.0800
vn -0.4718 0.5796 -0.6644
vn 0.1698 0.7987 -0.5774
vn 0.1698 0.7986 0.5774
vn 0.7987 -0.1698 0.5774
vn 0.7986 -0.1698 -0.5774
vn -0.7987 0.1698 -0.5774
vn -0.1698 -0.7987 -0.5774
vn -0.1698 -0.7986 0.5774
vn -0.7987 0.1698 0.5773
vn -0.0564 0.6242 -0.7792
vn 0.0848 -0.8985 0.4306
vn 0.0744 -0.9053 -0.4183
vn 0.4718 -0.5796 -0.6644
vn 0.8892 -0.3516 0.2927
vn -0.8892 0.3516 0.2927
vn 0.3851 -0.5930 0.7071
vn -0.3851 0.5930 0.7071
vn 0.5930 0.3851 0.7071
vn 0.5930 0.3851 -0.7071
vn 0.9781 -0.2079 0.0000
vn 0.3851 -0.5930 -0.7071
vn -0.5930 -0.3851 -0.7071
vn 0.2079 0.9781 0.0000
vn -0.2079 -0.9781 0.0000
vn -0.9781 0.2079 0.0000
vn -0.5930 -0.3851 0.7071
vn -0.3851 0.5930 -0.7071
usemtl None
s off
f 59//1 5//1 61//1
f 236//2 242//2 12//2
f 3//3 15//3 22//3
f 1//1 31//1 157//1
f 7//3 50//3 40//3
f 170//4 10//4 155//4
f 94//1 17//1 255//1
f 19//5 91//5 287//5
f 82//4 185//4 143//4
f 63//5 20//5 286//5
f 101//3 45//3 128//3
f 215//6 248//6 55//6
f 224//4 220//4 96//4
f 123//6 140//6 251//6
f 88//5 121//5 130//5
f 97//4 219//4 80//4
f 115//2 118//2 258//2
f 109//4 265//4 161//4
f 53//2 177//2 282//2
f 100//4 107//4 46//4
f 4//1 21//1 62//1
f 192//5 245//5 34//5
f 169//2 237//2 11//2
f 6//4 58//4 51//4
f 259//5 117//5 279//5
f 233//5 204//5 146//5
f 32//3 8//3 39//3
f 106//4 112//4 47//4
f 181//1 188//1 98//1
f 195//1 201//1 103//1
f 127//1 182//1 102//1
f 104//1 200//1 137//1
f 113//6 105//6 136//6
f 139//4 212//4 252//4
f 199//1 207//1 138//1
f 133//1 206//1 132//1
f 36//1 166//1 158//1
f 77//6 171//6 154//6
f 86//2 83//2 142//2
f 176//6 190//6 283//6
f 13//2 250//2 28//2
f 16//1 67//1 256//1
f 14//3 27//3 23//3
f 30//2 222//2 74//2
f 79//3 85//3 92//3
f 122//2 87//2 141//2
f 218//4 186//4 81//4
f 164//5 234//5 145//5
f 184//4 213//4 144//4
f 227//3 210//3 261//3
f 99//1 196//1 108//1
f 254//4 225//4 95//4
f 221//2 232//2 75//2
f 214//1 183//1 126//1
f 239//3 229//3 277//3
f 269//3 197//3 274//3
f 211//4 226//4 253//4
f 208//3 198//3 268//3
f 278//3 228//3 260//3
f 271//3 240//3 276//3
f 262//3 209//3 267//3
f 120//5 134//5 131//5
f 69//6 78//6 153//6
f 66//6 124//6 257//6
f 264//4 273//4 162//4
f 125//5 71//5 280//5
f 285//6 179//6 64//6
f 187//6 217//6 65//6
f 56//6 247//6 174//6
f 60//6 216//6 54//6
f 189//6 180//6 284//6
f 246//6 191//6 175//6
f 205//3 241//3 270//3
f 110//6 160//6 150//6
f 266//2 116//2 263//2
f 70//1 152//1 281//1
f 76//2 231//2 172//2
f 249//2 223//2 29//2
f 84//3 18//3 93//3
f 202//5 194//5 37//5
f 230//2 238//2 173//2
f 159//6 165//6 151//6
f 163//1 272//1 275//1
f 41//2 49//2 148//2
f 147//5 203//5 42//5
f 35//5 244//5 167//5
f 38//5 193//5 33//5
f 119//6 114//6 135//6
f 243//5 235//5 168//5
f 57//4 178//4 52//4
f 44//3 89//3 129//3
f 90//2 43//2 288//2
f 48//2 111//2 149//2
f 24//5 26//5 73//5
f 68//5 25//5 72//5
f 1//7 2//7 3//7 4//7 5//7 6//7 7//7 8//7
f 9//8 10//8 11//8 12//8 13//8 14//8 15//8
f 16//9 17//9 18//9 19//9 20//9 21//9 22//9 23//9 24//9 25//9
f 26//10 27//10 28//10 29//10 30//10
f 31//11 32//11 33//11 34//11 35//11 36//11
f 37//12 38//12 39//12 40//12 41//12 42//12
f 43//13 44//13 45//13 46//13 47//13 48//13 49//13 50//13 51//13 52//13 53//13
f 54//14 55//14 56//14 57//14 58//14 59//14
f 60//15 61//15 62//15 63//15 64//15 65//15
f 66//16 67//16 68//16 69//16 70//16 71//16
f 72//17 73//17 74//17 75//17 76//17 77//17 78//17
f 79//18 80//18 81//18 82//18 83//18
f 84//19 85//19 86//19 87//19 88//19 89//19 90//19 91//19
f 92//20 93//20 94//20 95//20 96//20 97//20
f 98//21 99//21 100//21 101//21 102//21
f 103//22 104//22 105//22 106//22 107//22 108//22
f 109//23 110//23 111//23 112//23 113//23 114//23 115//23 116//23
f 117//24 118//24 119//24 120//24 121//24 122//24 123//24 124//24 125//24
f 126//25 127//25 128//25 129//25 130//25 131//25 132//25
f 133//26 134//26 135//26 136//26 137//26 138//26
f 139//27 140//27 141//27 142//27 143//27 144//27
f 145//28 146//28 147//28 148//28 149//28 150//28 151//28
f 152//29 153//29 154//29 155//29 156//29 157//29 158//29 159//29 160//29 161//29 162//29 163//29
f 164//30 165//30 166//30 167//30 168//30
f 169//31 170//31 171//31 172//31 173//31
f 174//32 175//32 176//32 177//32 178//32
f 179//33 180//33 181//33 182//33 183//33 184//33 185//33 186//33 187//33
f 188//34 189//34 190//34 191//34 192//34 193//34 194//34 195//34 196//34
f 197//35 198//35 199//35 200//35 201//35 202//35 203//35 204//35 205//35
f 206//36 207//36 208//36 209//36 210//36 211//36 212//36 213//36 214//36
f 215//37 216//37 217//37 218//37 219//37 220//37 221//37 222//37 223//37
f 224//38 225//38 226//38 227//38 228//38 229//38 230//38 231//38 232//38
f 233//39 234//39 235//39 236//39 237//39 238//39 239//39 240//39 241//39
f 242//40 243//40 244//40 245//40 246//40 247//40 248//40 249//40 250//40
f 251//41 252//41 253//41 254//41 255//41 256//41 257//41
f 258//42 259//42 260//42 261//42 262//42 263//42
f 264//43 265//43 266//43 267//43 268//43 269//43
f 270//44 271//44 272//44 273//44 274//44
f 275//45 276//45 277//45 278//45 279//45 280//45 281//45
f 282//46 283//46 284//46 285//46 286//46 287//46 288//46
f 163//1 275//1 281//1 152//1
f 205//3 270//3 274//3 197//3
f 132//1 206//1 214//1 126//1
f 84//3 93//3 92//3 85//3
f 125//5 280//5 279//5 117//5
f 98//1 188//1 196//1 99//1
f 53//2 282//2 288//2 43//2
f 204//47 233//47 241//47 205//47
f 71//48 125//48 124//48 66//48
f 25//49 68//49 67//49 16//49
f 108//1 196//1 195//1 103//1
f 36//1 158//1 157//1 31//1
f 99//50 108//50 107//50 100//50
f 70//49 281//49 280//49 71//49
f 151//48 165//48 164//48 145//48
f 17//51 94//51 93//51 18//51
f 269//52 274//52 273//52 264//52
f 95//4 225//4 224//4 96//4
f 189//6 284//6 283//6 190//6
f 42//5 203//5 202//5 37//5
f 116//53 266//53 265//53 109//53
f 54//6 216//6 215//6 55//6
f 9//4 156//4 155//4 10//4
f 19//5 287//5 286//5 20//5
f 179//6 285//6 284//6 180//6
f 10//53 170//53 169//53 11//53
f 158//54 166//54 165//54 159//54
f 123//6 251//6 257//6 124//6
f 144//4 213//4 212//4 139//4
f 1//50 157//50 156//50 2//50
f 32//47 39//47 38//47 33//47
f 240//3 271//3 270//3 241//3
f 101//51 128//51 127//51 102//51
f 66//54 257//54 256//54 67//54
f 229//55 239//55 238//55 230//55
f 51//4 58//4 57//4 52//4
f 110//56 150//56 149//56 111//56
f 5//50 59//50 58//50 6//50
f 86//2 142//2 141//2 87//2
f 131//49 134//49 133//49 132//49
f 12//2 242//2 250//2 13//2
f 46//4 107//4 106//4 47//4
f 113//6 136//6 135//6 114//6
f 83//55 86//55 85//55 79//55
f 7//3 40//3 39//3 8//3
f 88//47 130//47 129//47 89//47
f 23//47 27//47 26//47 24//47
f 225//4 254//4 253//4 226//4
f 172//2 231//2 230//2 173//2
f 119//48 135//48 134//48 120//48
f 65//6 217//6 216//6 60//6
f 162//50 273//50 272//50 163//50
f 81//4 186//4 185//4 82//4
f 28//2 250//2 249//2 29//2
f 235//57 243//57 242//57 236//57
f 68//48 72//48 78//48 69//48
f 34//5 245//5 244//5 35//5
f 69//54 153//54 152//54 70//54
f 80//4 219//4 218//4 81//4
f 114//56 119//56 118//56 115//56
f 197//3 269//3 268//3 198//3
f 74//2 222//2 221//2 75//2
f 13//55 28//55 27//55 14//55
f 180//54 189//54 188//54 181//54
f 126//1 183//1 182//1 127//1
f 90//57 288//57 287//57 91//57
f 211//4 253//4 252//4 212//4
f 76//56 172//56 171//56 77//56
f 2//52 9//52 15//52 3//52
f 77//6 154//6 153//6 78//6
f 55//6 248//6 247//6 56//6
f 271//51 276//51 275//51 272//51
f 208//3 268//3 267//3 209//3
f 183//50 214//50 213//50 184//50
f 137//1 200//1 199//1 138//1
f 30//57 74//57 73//57 26//57
f 228//3 278//3 277//3 229//3
f 82//53 143//53 142//53 83//53
f 18//47 84//47 91//47 19//47
f 64//6 179//6 187//6 65//6
f 102//1 182//1 181//1 98//1
f 56//58 174//58 178//58 57//58
f 24//5 73//5 72//5 25//5
f 167//5 244//5 243//5 168//5
f 175//6 191//6 190//6 176//6
f 35//49 167//49 166//49 36//49
f 41//57 148//57 147//57 42//57
f 103//1 201//1 200//1 104//1
f 150//6 160//6 159//6 151//6
f 63//48 286//48 285//48 64//48
f 96//4 220//4 219//4 97//4
f 52//53 178//53 177//53 53//53
f 174//6 247//6 246//6 175//6
f 105//58 113//58 112//58 106//58
f 43//55 90//55 89//55 44//55
f 33//5 193//5 192//5 34//5
f 16//1 256//1 255//1 17//1
f 117//57 259//57 258//57 118//57
f 210//52 227//52 226//52 211//52
f 145//5 234//5 233//5 146//5
f 239//3 277//3 276//3 240//3
f 154//58 171//58 170//58 155//58
f 40//55 50//55 49//55 41//55
f 37//5 194//5 193//5 38//5
f 191//48 246//48 245//48 192//48
f 146//5 204//5 203//5 147//5
f 259//47 279//47 278//47 260//47
f 198//51 208//51 207//51 199//51
f 48//2 149//2 148//2 49//2
f 115//2 258//2 263//2 116//2
f 143//4 185//4 184//4 144//4
f 262//55 267//55 266//55 263//55
f 220//53 224//53 232//53 221//53
f 109//58 161//58 160//58 110//58
f 4//1 62//1 61//1 5//1
f 223//56 249//56 248//56 215//56
f 168//5 235//5 234//5 164//5
f 104//54 137//54 136//54 105//54
f 47//53 112//53 111//53 48//53
f 59//54 61//54 60//54 54//54
f 45//52 101//52 100//52 46//52
f 79//52 92//52 97//52 80//52
f 6//52 51//52 50//52 7//52
f 173//2 238//2 237//2 169//2
f 120//5 131//5 130//5 121//5
f 20//49 63//49 62//49 21//49
f 161//4 265//4 264//4 162//4
f 227//3 261//3 260//3 228//3
f 122//56 141//56 140//56 123//56
f 8//51 32//51 31//51 1//51
f 11//2 237//2 236//2 12//2
f 87//57 122//57 121//57 88//57
f 209//3 262//3 261//3 210//3
f 14//3 23//3 22//3 15//3
f 29//2 223//2 222//2 30//2
f 3//51 22//51 21//51 4//51
f 186//58 218//58 217//58 187//58
f 75//2 232//2 231//2 76//2
f 138//1 207//1 206//1 133//1
f 194//49 202//49 201//49 195//49
f 44//3 129//3 128//3 45//3
f 139//58 252//58 251//58 140//58
f 176//56 283//56 282//56 177//56
f 94//50 255//50 254//50 95//50
f 9//4 2//4 156//4
