{"accessors":[{"name":"Cube-Small-Mesh_0_positions","componentType":5126,"count":864,"min":[-34.473812103271484,-34.473812103271484,-25],"max":[34.473812103271484,34.473812103271484,25],"type":"VEC3","bufferView":0,"byteOffset":0},{"name":"Cube-Small-Mesh_0_normals","componentType":5126,"count":864,"min":[-0.9850614666938782,-0.9781479239463806,-1],"max":[0.9850614666938782,0.9781479239463806,1],"type":"VEC3","bufferView":1,"byteOffset":0},{"name":"Cube-Small-Mesh_0_indices","componentType":5123,"count":1776,"min":[0],"max":[863],"type":"SCALAR","bufferView":2,"byteOffset":0}],"asset":{"generator":"obj2gltf","version":"2.0"},"buffers":[{"name":"cube-small","byteLength":24288,"uri":"data:application/octet-stream;base64,"}],"bufferViews":[{"name":"bufferView_0","buffer":0,"byteLength":10368,"byteOffset":0,"byteStride":12,"target":34962},{"name":"bufferView_1","buffer":0,"byteLength":10368,"byteOffset":10368,"byteStride":12,"target":34962},{"name":"bufferView_2","buffer":0,"byteLength":3552,"byteOffset":20736,"target":34963}],"materials":[{"name":"None","pbrMetallicRoughness":{"baseColorFactor":[0.8,0.8,0.8,1],"metallicFactor":0,"roughnessFactor":1},"emissiveFactor":[0,0,0],"alphaMode":"OPAQUE","doubleSided":false}],"meshes":[{"name":"Cube-Small-Mesh","primitives":[{"attributes":{"POSITION":0,"NORMAL":1},"indices":2,"material":0,"mode":4}]}],"nodes":[{"name":"Cube-Small","mesh":0}],"scene":0,"scenes":[{"nodes":[0]}]}