{"accessors":[{"name":"Icosphere-Mesh_0_positions","componentType":5126,"count":60,"min":[-9.639344215393066,-9.201495170593262,-8.898314476013184],"max":[8.249154090881348,7.811305046081543,11.101683616638184],"type":"VEC3","bufferView":0,"byteOffset":0},{"name":"Icosphere-Mesh_0_normals","componentType":5126,"count":60,"min":[-0.9822438955307007,-0.9341833591461182,-0.7946866750717163],"max":[0.9822438955307007,0.9341833591461182,0.7946866750717163],"type":"VEC3","bufferView":1,"byteOffset":0},{"name":"Icosphere-Mesh_0_indices","componentType":5123,"count":60,"min":[0],"max":[59],"type":"SCALAR","bufferView":2,"byteOffset":0}],"asset":{"generator":"obj2gltf","version":"2.0"},"buffers":[{"name":"icosphere","byteLength":1560,"uri":"data:application/octet-stream;base64,"}],"bufferViews":[{"name":"bufferView_0","buffer":0,"byteLength":720,"byteOffset":0,"byteStride":12,"target":34962},{"name":"bufferView_1","buffer":0,"byteLength":720,"byteOffset":720,"byteStride":12,"target":34962},{"name":"bufferView_2","buffer":0,"byteLength":120,"byteOffset":1440,"target":34963}],"materials":[{"name":"Material.002","pbrMetallicRoughness":{"baseColorFactor":[0.64,0.64,0.64,1],"metallicFactor":0,"roughnessFactor":0.903921569},"emissiveFactor":[0,0,0],"alphaMode":"OPAQUE","doubleSided":false}],"meshes":[{"name":"Icosphere-Mesh","primitives":[{"attributes":{"POSITION":0,"NORMAL":1},"indices":2,"material":0,"mode":4}]}],"nodes":[{"name":"Icosphere","mesh":0}],"scene":0,"scenes":[{"nodes":[0]}]}