# Blender v2.79 (sub 0) OBJ File: 'glowing-cubes.blend'
# www.blender.org
mtllib icosphere.mtl
o Icosphere
v -0.695095 -0.695095 -8.898314
v 6.540904 -5.952295 -3.370465
v -3.458945 -9.201495 -3.370465
v -9.639344 -0.695095 -3.370465
v -3.458945 7.811305 -3.370465
v 6.540904 4.562104 -3.370465
v 2.068755 -9.201495 5.573834
v -7.931095 -5.952295 5.573834
v -7.931095 4.562104 5.573834
v 2.068755 7.811305 5.573834
v 8.249154 -0.695095 5.573834
v -0.695095 -0.695095 11.101684
vn 0.1876 -0.5774 -0.7947
vn 0.6071 0.0000 -0.7947
vn -0.4911 -0.3568 -0.7947
vn -0.4911 0.3568 -0.7947
vn 0.1876 0.5774 -0.7947
vn 0.9822 0.0000 -0.1876
vn 0.3035 -0.9342 -0.1876
vn -0.7946 -0.5774 -0.1876
vn -0.7946 0.5774 -0.1876
vn 0.3035 0.9342 -0.1876
vn 0.7946 -0.5774 0.1876
vn -0.3035 -0.9342 0.1876
vn -0.9822 0.0000 0.1876
vn -0.3035 0.9342 0.1876
vn 0.7946 0.5774 0.1876
vn 0.4911 -0.3568 0.7947
vn -0.1876 -0.5774 0.7947
vn -0.6071 0.0000 0.7947
vn -0.1876 0.5774 0.7947
vn 0.4911 0.3568 0.7947
usemtl Material.002
s off
f 1//1 2//1 3//1
f 2//2 1//2 6//2
f 1//3 3//3 4//3
f 1//4 4//4 5//4
f 1//5 5//5 6//5
f 2//6 6//6 11//6
f 3//7 2//7 7//7
f 4//8 3//8 8//8
f 5//9 4//9 9//9
f 6//10 5//10 10//10
f 2//11 11//11 7//11
f 3//12 7//12 8//12
f 4//13 8//13 9//13
f 5//14 9//14 10//14
f 6//15 10//15 11//15
f 7//16 11//16 12//16
f 8//17 7//17 12//17
f 9//18 8//18 12//18
f 10//19 9//19 12//19
f 11//20 10//20 12//20
